<?xml version="1.0" encoding="UTF-8"?>
<svg id="Laag_1" xmlns="http://www.w3.org/2000/svg" version="1.1" viewBox="0 0 155 22">
  <!-- Generator: Adobe Illustrator 29.4.0, SVG Export Plug-In . SVG Version: 2.1.0 Build 152)  -->
  <defs>
    <style>
      .st0 {
        fill: #09090b;
        fill-rule: evenodd;
      }
    </style>
  </defs>
  <g>
    <path d="M35.1,20c-1.5,0-2.8-.3-4-1-1.2-.7-2.1-1.7-2.8-2.9-.7-1.3-1-2.8-1-4.7s.3-3.4,1-4.7,1.6-2.3,2.8-2.9,2.5-1,4-1,1.8.1,2.7.4c.8.3,1.6.7,2.2,1.2s1.2,1.1,1.6,1.9c.4.7.7,1.6.8,2.5h-3.5c0-.5-.2-.9-.4-1.2s-.5-.7-.8-.9c-.3-.3-.7-.4-1.1-.6-.4-.1-.9-.2-1.3-.2-.9,0-1.6.2-2.3.7-.7.4-1.2,1.1-1.5,1.9-.4.8-.5,1.8-.5,3s.2,2.2.6,3.1c.4.8.9,1.5,1.5,1.9.7.4,1.4.6,2.3.6s.9,0,1.3-.2c.4-.1.8-.3,1.1-.6.3-.3.6-.6.8-.9.2-.4.4-.8.4-1.2h3.5c0,.8-.3,1.5-.7,2.2-.4.7-.9,1.4-1.5,1.9-.6.6-1.3,1-2.2,1.3-.8.3-1.8.5-2.9.5Z"/>
    <path d="M50.4,20c-1.3,0-2.4-.3-3.3-.8-.9-.5-1.6-1.3-2.1-2.2-.5-1-.7-2.1-.7-3.4s.2-2.4.7-3.4c.5-1,1.2-1.7,2.1-2.3.9-.5,2-.8,3.2-.8s1.6.1,2.3.4c.7.3,1.3.7,1.9,1.2.5.5,1,1.2,1.3,2s.5,1.7.5,2.8v.9h-10.6v-2.1h8.9l-1.6.6c0-.7,0-1.2-.3-1.7-.2-.5-.5-.9-.9-1.1-.4-.3-.9-.4-1.5-.4s-1.1.1-1.5.4c-.4.3-.7.6-.9,1.1-.2.5-.3,1-.3,1.6v1.5c0,.7.1,1.3.4,1.8.2.5.6.9,1,1.1.4.2,1,.4,1.5.4s.8,0,1.1-.2c.3-.1.6-.3.8-.5.2-.2.4-.5.5-.8l3.1.6c-.2.7-.6,1.3-1.1,1.8-.5.5-1.1.9-1.9,1.2s-1.6.4-2.6.4Z"/>
    <path d="M58.5,19.7V7.1h3.3v2.2h.1c.2-.8.6-1.4,1.2-1.8.5-.4,1.2-.6,1.9-.6s.4,0,.6,0c.2,0,.4,0,.5,0v3c-.2,0-.4,0-.7-.1-.3,0-.6,0-.8,0-.5,0-1,.1-1.4.3-.4.2-.7.5-1,.9-.2.4-.3.9-.3,1.4v7.2h-3.4Z"/>
    <path d="M73,20c-1.3,0-2.4-.3-3.3-.8-.9-.5-1.6-1.3-2.1-2.2-.5-1-.7-2.1-.7-3.4s.2-2.4.7-3.4c.5-1,1.2-1.7,2.1-2.3.9-.5,2-.8,3.2-.8s1.6.1,2.3.4c.7.3,1.3.7,1.9,1.2.5.5,1,1.2,1.3,2,.3.8.5,1.7.5,2.8v.9h-10.6v-2.1h8.9l-1.6.6c0-.7,0-1.2-.3-1.7-.2-.5-.5-.9-.9-1.1-.4-.3-.9-.4-1.5-.4s-1.1.1-1.5.4c-.4.3-.7.6-.9,1.1-.2.5-.3,1-.3,1.6v1.5c0,.7.1,1.3.4,1.8.2.5.6.9,1,1.1s1,.4,1.5.4.8,0,1.1-.2c.3-.1.6-.3.8-.5.2-.2.4-.5.5-.8l3.1.6c-.2.7-.6,1.3-1.1,1.8s-1.1.9-1.9,1.2-1.6.4-2.6.4Z"/>
    <path d="M88.1,19.9c-.7,0-1.3-.1-1.7-.3s-.9-.5-1.2-.9-.5-.7-.7-1h-.2v2h-3.3V2.9h3.4v6.3h.1c.2-.3.4-.7.7-1,.3-.4.7-.6,1.1-.9.5-.2,1.1-.4,1.8-.4s1.8.2,2.6.7c.8.5,1.4,1.2,1.9,2.2.5,1,.7,2.2.7,3.6s-.2,2.6-.7,3.5c-.5,1-1.1,1.7-1.8,2.2-.8.5-1.6.7-2.6.7ZM87.1,17.2c.6,0,1.1-.2,1.5-.5.4-.3.7-.8.9-1.3.2-.6.3-1.2.3-2s-.1-1.4-.3-1.9c-.2-.6-.5-1-.9-1.3-.4-.3-.9-.5-1.5-.5s-1.1.2-1.5.5c-.4.3-.7.7-.9,1.3-.2.6-.3,1.2-.3,2s.1,1.4.3,2c.2.6.5,1,.9,1.3.4.3.9.5,1.5.5Z"/>
    <path d="M101.3,20c-1.3,0-2.4-.3-3.3-.8-.9-.5-1.6-1.3-2.1-2.2-.5-1-.7-2.1-.7-3.4s.2-2.4.7-3.4c.5-1,1.2-1.7,2.1-2.3.9-.5,2-.8,3.2-.8s1.6.1,2.3.4c.7.3,1.3.7,1.9,1.2.5.5,1,1.2,1.3,2,.3.8.5,1.7.5,2.8v.9h-10.6v-2.1h8.9l-1.6.6c0-.7-.1-1.2-.3-1.7-.2-.5-.5-.9-.9-1.1-.4-.3-.9-.4-1.5-.4s-1.1.1-1.5.4c-.4.3-.7.6-.9,1.1-.2.5-.3,1-.3,1.6v1.5c0,.7.1,1.3.4,1.8.2.5.6.9,1,1.1.4.2,1,.4,1.5.4s.8,0,1.1-.2c.3-.1.6-.3.8-.5s.4-.5.5-.8l3.1.6c-.2.7-.6,1.3-1.1,1.8-.5.5-1.1.9-1.9,1.2s-1.6.4-2.6.4Z"/>
    <path d="M112.8,2.9v16.8h-3.4V2.9h3.4Z"/>
    <path d="M119,2.9v16.8h-3.4V2.9h3.4Z"/>
    <path d="M127.5,20c-1.3,0-2.4-.3-3.3-.8-.9-.5-1.6-1.3-2.1-2.3s-.7-2.1-.7-3.4.2-2.4.7-3.4c.5-1,1.2-1.7,2.1-2.3.9-.5,2-.8,3.3-.8s2.4.3,3.3.8c.9.5,1.6,1.3,2.1,2.3.5,1,.7,2.1.7,3.4s-.2,2.4-.7,3.4c-.5,1-1.2,1.7-2.1,2.3-.9.5-2,.8-3.3.8ZM127.5,17.3c.6,0,1.1-.2,1.5-.5.4-.3.7-.8.9-1.4.2-.6.3-1.2.3-2s-.1-1.4-.3-2c-.2-.6-.5-1-.9-1.4-.4-.3-.9-.5-1.5-.5s-1.1.2-1.5.5c-.4.3-.7.8-.9,1.4-.2.6-.3,1.2-.3,2s.1,1.4.3,2c.2.6.5,1,.9,1.4.4.3.9.5,1.5.5Z"/>
  </g>
  <path class="st0" d="M11,0C4.9,0,0,4.9,0,11c0,5.3,3.8,9.8,8.8,10.8v-8.8c0-2.5,2-4.5,4.5-4.5h8.5C20.6,3.6,16.2,0,11,0ZM22,11.5h-8.7c-.8,0-1.5.7-1.5,1.5v9c5.6-.4,10-4.9,10.2-10.5Z"/>
</svg>