<?xml version="1.0" encoding="UTF-8"?>
<svg id="Laag_1" xmlns="http://www.w3.org/2000/svg" version="1.1" viewBox="0 0 125 22">
  <!-- Generator: Adobe Illustrator 29.4.0, SVG Export Plug-In . SVG Version: 2.1.0 Build 152)  -->
  <defs>
    <style>
      .st0 {
        fill: #09090b;
        fill-rule: evenodd;
      }
    </style>
  </defs>
  <path class="st0" d="M11,0C4.9,0,0,4.9,0,11c0,5.3,3.8,9.8,8.8,10.8v-8.8c0-2.5,2-4.5,4.5-4.5h8.5C20.6,3.6,16.2,0,11,0ZM22,11.5h-8.7c-.8,0-1.5.7-1.5,1.5v9c5.6-.4,10-4.9,10.2-10.5Z"/>
  <g>
    <path d="M34.1,19.8c-1.4,0-2.7-.3-3.9-1-1.1-.7-2-1.6-2.7-2.9-.7-1.3-1-2.8-1-4.6s.3-3.3,1-4.6c.7-1.3,1.6-2.2,2.7-2.9,1.1-.7,2.4-1,3.9-1s1.7.1,2.5.4c.8.3,1.5.6,2.1,1.1.6.5,1.1,1.1,1.5,1.8.4.7.7,1.5.8,2.4h-3c0-.5-.3-.9-.5-1.3-.2-.4-.5-.7-.9-1-.3-.3-.7-.5-1.2-.6-.4-.1-.9-.2-1.4-.2-.9,0-1.7.2-2.4.7-.7.5-1.2,1.1-1.6,2s-.6,1.9-.6,3.2.2,2.3.6,3.2c.4.9.9,1.5,1.6,2,.7.4,1.5.7,2.4.7s1,0,1.4-.2.8-.3,1.2-.6c.4-.3.6-.6.9-1,.2-.4.4-.8.5-1.3h3c-.1.8-.4,1.5-.7,2.2s-.9,1.3-1.5,1.8-1.3.9-2.1,1.2c-.8.3-1.7.4-2.7.4Z"/>
    <path d="M48.3,19.9c-1.2,0-2.3-.3-3.2-.8-.9-.5-1.6-1.3-2.1-2.2s-.7-2.1-.7-3.4.2-2.4.7-3.4,1.2-1.7,2-2.3c.9-.5,1.9-.8,3.1-.8s1.5.1,2.2.4,1.3.6,1.8,1.1.9,1.2,1.2,1.9c.3.8.4,1.7.4,2.8v.9h-10.1v-2h8.7l-1.4.6c0-.7-.1-1.3-.3-1.8s-.5-.9-1-1.2c-.4-.3-1-.4-1.6-.4s-1.2.1-1.6.4c-.4.3-.8.7-1,1.2-.2.5-.3,1.1-.3,1.7v1.4c0,.8.1,1.4.4,2,.3.5.6.9,1.1,1.2.5.3,1,.4,1.7.4s.8,0,1.1-.2c.3-.1.6-.3.9-.5s.4-.5.6-.9l2.7.5c-.2.7-.5,1.2-1,1.7-.5.5-1.1.9-1.8,1.2-.7.3-1.5.4-2.5.4Z"/>
    <path d="M55.3,19.6V7.2h2.8v2.1h.1c.2-.7.6-1.3,1.2-1.7.6-.4,1.2-.6,1.9-.6s.3,0,.5,0c.2,0,.4,0,.5,0v2.7c-.1,0-.3,0-.6,0-.3,0-.5,0-.8,0-.5,0-1,.1-1.4.3-.4.2-.8.5-1,.9-.2.4-.4.9-.4,1.4v7.3h-2.9Z"/>
    <path d="M68.4,19.9c-1.2,0-2.3-.3-3.2-.8-.9-.5-1.6-1.3-2.1-2.2s-.7-2.1-.7-3.4.2-2.4.7-3.4,1.2-1.7,2-2.3c.9-.5,1.9-.8,3.1-.8s1.5.1,2.2.4,1.3.6,1.8,1.1.9,1.2,1.2,1.9c.3.8.4,1.7.4,2.8v.9h-10.1v-2h8.7l-1.4.6c0-.7-.1-1.3-.3-1.8s-.5-.9-1-1.2c-.4-.3-1-.4-1.6-.4s-1.2.1-1.6.4c-.4.3-.8.7-1,1.2-.2.5-.3,1.1-.3,1.7v1.4c0,.8.1,1.4.4,2,.3.5.6.9,1.1,1.2.5.3,1,.4,1.7.4s.8,0,1.1-.2c.3-.1.6-.3.9-.5s.4-.5.6-.9l2.7.5c-.2.7-.5,1.2-1,1.7-.5.5-1.1.9-1.8,1.2-.7.3-1.5.4-2.5.4Z"/>
    <path d="M82,19.8c-.7,0-1.3-.1-1.8-.4s-.9-.5-1.1-.9c-.3-.3-.5-.7-.6-1h-.2v2h-2.8V3.1h2.9v6.2h.1c.1-.3.4-.6.6-1s.6-.6,1.1-.9c.5-.2,1.1-.4,1.8-.4s1.8.2,2.6.7c.8.5,1.4,1.2,1.8,2.2.5,1,.7,2.1.7,3.5s-.2,2.5-.7,3.5c-.4,1-1.1,1.7-1.8,2.2-.8.5-1.7.7-2.6.7ZM81.2,17.5c.6,0,1.2-.2,1.6-.5.4-.4.8-.8,1-1.4.2-.6.3-1.3.3-2.1s-.1-1.5-.3-2.1c-.2-.6-.5-1.1-1-1.4-.4-.3-1-.5-1.6-.5s-1.2.2-1.6.5c-.4.3-.8.8-1,1.4-.2.6-.3,1.3-.3,2.1s.1,1.5.3,2.1.6,1.1,1,1.4c.4.3,1,.5,1.6.5Z"/>
    <path d="M94.2,19.9c-1.2,0-2.3-.3-3.2-.8-.9-.5-1.6-1.3-2.1-2.2s-.7-2.1-.7-3.4.2-2.4.7-3.4c.5-1,1.2-1.7,2-2.3.9-.5,1.9-.8,3.1-.8s1.5.1,2.2.4c.7.2,1.3.6,1.8,1.1.5.5.9,1.2,1.2,1.9.3.8.4,1.7.4,2.8v.9h-10.1v-2h8.7l-1.4.6c0-.7-.1-1.3-.3-1.8s-.5-.9-1-1.2c-.4-.3-1-.4-1.6-.4s-1.2.1-1.6.4c-.4.3-.8.7-1,1.2-.2.5-.3,1.1-.3,1.7v1.4c0,.8.1,1.4.4,2s.6.9,1.1,1.2c.5.3,1,.4,1.7.4s.8,0,1.1-.2.6-.3.9-.5c.3-.2.4-.5.6-.9l2.7.5c-.2.7-.5,1.2-1,1.7-.5.5-1.1.9-1.8,1.2-.7.3-1.5.4-2.5.4Z"/>
    <path d="M104.1,3.1v16.5h-2.9V3.1h2.9Z"/>
    <path d="M109.2,3.1v16.5h-2.9V3.1h2.9Z"/>
    <path d="M116.7,19.9c-1.2,0-2.3-.3-3.1-.8-.9-.5-1.6-1.3-2.1-2.2s-.7-2.1-.7-3.3.2-2.4.7-3.4c.5-1,1.2-1.7,2.1-2.2.9-.5,1.9-.8,3.1-.8s2.3.3,3.2.8c.9.5,1.6,1.3,2.1,2.2.5,1,.7,2.1.7,3.4s-.2,2.4-.7,3.3c-.5,1-1.2,1.7-2.1,2.2s-1.9.8-3.2.8ZM116.7,17.5c.7,0,1.2-.2,1.7-.5s.8-.9,1-1.5c.2-.6.3-1.3.3-2.1s-.1-1.4-.3-2.1c-.2-.6-.6-1.1-1-1.5s-1-.5-1.7-.5-1.2.2-1.7.5c-.4.4-.8.8-1,1.5-.2.6-.3,1.3-.3,2.1s.1,1.4.3,2.1c.2.6.5,1.1,1,1.5.4.4,1,.5,1.7.5Z"/>
  </g>
</svg>