<?xml version="1.0" encoding="UTF-8"?>
<svg id="Laag_1" xmlns="http://www.w3.org/2000/svg" xmlns:serif="http://www.serif.com/" version="1.1" viewBox="0 0 595.3 131.8">
  <!-- Generator: Adobe Illustrator 29.4.0, SVG Export Plug-In . SVG Version: 2.1.0 Build 152)  -->
  <defs>
    <style>
      .st0 {
        fill-rule: evenodd;
      }

      .st0, .st1 {
        fill: #fff;
      }
    </style>
  </defs>
  <path class="st1" d="M30.9,55.3c-3.1-2.2-6.8-3.3-10.6-3.1-3.1,0-6.1,1-6.1,3.4s3,3.6,7.5,4c9,1,18.3,4.6,18.3,15s-9.7,14.7-19.8,14.7-13.9-1.3-20.2-7.9l7-8.1c3.5,3.4,8.3,5.3,13.2,5.1,4.2,0,7.1-1.5,7.1-4s-2.6-3.7-7.5-4.1c-9.8-.9-18.4-3.4-18.4-14.7s9.4-13.7,18.9-13.7c6.1-.3,12.1,1.6,16.9,5.4l-6.3,8.1Z"/>
  <path class="st1" d="M55.1,53.4h-13.2v-10.5h39.1v10.5h-13.2v34.6h-12.7v-34.6Z"/>
  <path class="st1" d="M103.6,55.5l-5.8,14.4h11.5l-5.7-14.4ZM113.6,80.6h-20.2l-3,7.3h-13.5l20.3-45.1h12.9l20.2,45.1h-13.7l-3-7.3Z"/>
  <path class="st1" d="M146.5,77.2h6.7c8.1,0,11-6.1,11-12.2s-3.2-11.5-11-11.5h-6.7v23.7ZM153.2,42.9c15.9,0,23.6,9.8,23.6,22.2s-7.3,22.9-23.6,22.9h-19.4v-45.2h19.4Z"/>
  <path class="st1" d="M211.4,55.3c-3.1-2.2-6.8-3.3-10.5-3.1-3.1,0-6.1,1-6.1,3.4s3,3.6,7.5,4c8.9,1,18.3,4.6,18.3,15s-9.7,14.7-19.8,14.7-13.9-1.3-20.2-7.9l7-8.1c3.6,3.5,8.4,5.3,13.4,5.1,4.2,0,7.1-1.5,7.1-4s-2.6-3.7-7.5-4.1c-9.8-.9-18.4-3.4-18.4-14.7s9.4-13.7,18.9-13.7c6.1-.3,12.1,1.6,16.9,5.4l-6.4,8.1Z"/>
  <path class="st1" d="M517.8,88l17.1-34.7h-19.8v-10.5h35.6l.3,5.7-19.4,39.5h-13.8Z"/>
  <path class="st1" d="M555.2,57.1c0-10.5,8.9-14.9,19-14.9s18.7,4.7,18.7,14.2-8.1,15-18.9,15-7.3.5-7.3,5.7h25.9v10.8h-38.1v-10.4c0-13.4,10.3-16.1,19.6-16.1s6.3-1,6.3-4.7-3-4.3-6.1-4.3-6.2,1.3-6.5,4.8h-12.5Z"/>
  <path class="st0" d="M511.3,65.7c0,21.1-17.4,38.5-38.5,38.5s-38.5-17.4-38.5-38.5,17.3-38.4,38.4-38.5h0c21.1,0,38.5,17.4,38.5,38.5h0ZM497.1,65.7h0c0-13.3-10.9-24.2-24.2-24.2-13.3,0-24.2,11-24.2,24.2s10.9,24.2,24.2,24.2,24.2-10.9,24.2-24.2Z"/>
  <path class="st1" d="M273.9,87.9h-10.4l-8-21.6-7.7,21.6h-10.2l-16.8-45.1h13.9l5.7,15.9c1,3.4,1.8,6.9,2.4,10.4l8.3-26.3h8.8l8.6,26.3c.6-3.4,1.5-7,2.4-10.8l5.4-15.5h13.9l-16.5,45Z"/>
  <path class="st1" d="M330.7,88h-36.1v-45.1h35.2v10.7h-22.6v6.4h21.3v10.4h-21.3v6.8h23.5v10.8Z"/>
  <path class="st1" d="M350.7,53v10.8h9.4c0,0,.1,0,.2,0,2.6,0,4.7-2.1,4.7-4.7s0-.3,0-.5c0-.2,0-.3,0-.5,0-2.7-2.2-5-4.9-5.1h-9.4ZM379.7,88h-14.1l-10.5-14.7h-4.5v14.7h-12.8v-45.1h22c11.5,0,17.5,7.3,17.5,15.5s-1.9,10.3-9.6,13.6l11.8,15.2v.8h0Z"/>
  <path class="st1" d="M425.4,43.6l-18.3,21.3c6.3,7,13.6,15.1,19.9,22.2v.8h-15.8l-12.9-15v15h-12.8v-45.1h12.8v14.8c3.9-4.8,8.1-10.1,11.9-14.8h15.3v.8Z"/>
  <rect class="st1" x="462.7" y="55.6" width="20.3" height="20.3"/>
  <rect class="st1" x="462.7" y="111.5" width="20.3" height="20.3"/>
  <rect class="st1" x="462.7" width="20.3" height="20.3"/>
</svg>