<?xml version="1.0" encoding="UTF-8"?>
<svg id="Laag_1" data-name="Laag 1" xmlns="http://www.w3.org/2000/svg" viewBox="0 0 2500 869.55">
  <defs>
    <style>
      .cls-1 {
        fill: #fff;
      }
    </style>
  </defs>
  <path class="cls-1" d="M804.37,731.22c9.62,9.6,15.03,22.64,15.01,36.23,0,15.64-7,28.24-15,36.24-15.26,15.24-36.04,31.11-63.18,42.34-23.49,9.74-48.67,14.74-74.1,14.71H193.65c-53.48,0-101.89-21.66-136.93-56.71C21.67,768.99,0,720.58,0,667.09V193.63c0-53.48,21.66-101.88,56.72-136.92C91.76,21.67,140.17,0,193.65,0h473.44c25.43-.03,50.61,4.96,74.11,14.69,31.3,12.97,51.31,28.96,70.62,49.81,7.69,8.3,15.01,20.59,15.01,36.24,0,13.11-5.01,26.22-15.01,36.23-9.6,9.62-22.64,15.03-36.23,15.01-13.59-.03-26.61-5.43-36.23-15.01-13.66-13.67-21.15-20.69-36.81-27.32-11.21-4.75-23.27-7.19-35.44-7.18H193.65c-25.14,0-47.92,10.22-64.43,26.74-16.5,16.49-26.72,39.27-26.72,64.41v473.47c0,25.16,10.23,47.93,26.72,64.42,16.5,16.51,39.29,26.74,64.43,26.74h473.44c12.55,0,24.53-2.54,35.44-7.18,10.97-4.67,20.94-11.41,29.36-19.86,9.62-9.59,22.65-14.98,36.24-15,13.59-.02,26.63,5.38,36.23,15ZM665.59,670.22c-1.84-37.38-27.1-94.93-90.57-102.49h-225.83l260.18-249.08c10.98-10.48,35.64-46.02,18.09-84.26-14.1-30.75-37.72-43.85-78.98-43.85H224.36c1.32,43,22.78,94.33,79.77,103.52h185.2l-273.71,257.23c-11.11,10.66-29.37,43.42-14.95,76.7,13.01,29.99,34.93,42.23,75.67,42.23h389.25ZM1407.05,435.54v190.87c0,70.61-21.6,132-70.59,180.97-44.03,44.05-99.67,62.17-160.76,62.17-119.8,0-181.52-92.57-181.52-92.57,32.21-32.21,77.01-51.78,120.87-25.5,7.38,4.41,29.49,16.49,61.13,16.49,110.87,0,128.92-99.08,128.92-128.57-38.41,23.22-81.78,34.78-129.94,34.8h-.06c-62.65-.03-117.6-19.83-163.3-58.91l-.6-.52c-44.85-43.01-67.8-96.06-68.18-157.75-.3-12.67-.3-53.25,0-62.68.14-60.64,23.08-113.49,68.18-156.68,45.54-43.61,100.69-65.74,163.9-65.76h.05c84,0,145.67,41.58,174.18,76.17,7.27,8.8,11.49,20.15,11.49,32.45,0,14.24-5.75,27.14-15.09,36.48-9.67,9.68-22.8,15.12-36.48,15.1-14.1,0-27.58-5.89-36.16-14.83-32-33.27-62.43-43.77-97.96-43.77-35.53,0-65.15,11.86-90.53,36.22-25.22,23.78-37.12,50.83-37.47,85.22-.56,15.05-.56,47.04-.02,61.49.28,35.24,12.13,62.68,37.28,86.78,26.22,23.93,55.98,35.66,90.75,35.68,34.77-.02,64.54-11.75,90.97-35.89,13.79-13.24,23.59-27.54,29.62-43.63,4.85-12.92,14.99-39.88,49.28-53.56,28.9-11.5,62.04-10.26,62.04-10.26h0ZM1891.3,445.81c-34.29,13.67-44.43,40.62-49.28,53.56-6.05,16.09-15.85,30.4-29.65,43.63-26.42,24.14-56.19,35.87-90.96,35.89-34.78-.02-64.5-11.75-90.74-35.67-25.17-24.1-37-51.54-37.29-86.78-.53-14.46-.53-46.44.04-61.49.35-34.4,12.23-61.44,37.46-85.22,25.37-24.37,55-36.22,90.54-36.22,35.52,0,65.96,10.5,97.95,43.77,8.58,8.94,22.07,14.83,36.17,14.83s27.15-5.77,36.47-15.1c9.69-9.67,15.13-22.79,15.11-36.48,0-12.29-4.24-23.63-11.49-32.45-28.54-34.59-90.2-76.17-174.18-76.17h-.06c-63.22.02-118.35,22.14-163.9,65.76-45.12,43.19-68.04,96.04-68.18,156.68-.32,9.43-.32,50.01,0,62.68.38,61.68,23.32,114.74,68.18,157.75l.59.52c45.71,39.08,100.66,58.89,163.32,58.91h.05c48.16-.02,91.52-11.58,129.93-34.8,0,29.49-18.06,128.57-128.92,128.57-31.65,0-53.77-12.07-61.14-16.49-43.86-26.28-88.67-6.72-120.87,25.5,0,0,61.72,92.57,181.54,92.57,61.08,0,116.72-18.12,160.76-62.17,48.99-48.97,70.58-110.36,70.58-180.97v-190.88s-33.14-1.22-62.01,10.28h0ZM2499.76,394.76c-.14-61.03-23.08-113.89-68.16-157.1-45.55-43.62-100.72-65.74-163.95-65.76h-.05c-63.21.02-118.34,22.14-163.9,65.76-45.1,43.19-68.02,96.04-68.17,156.68-.31,9.43-.31,50.01,0,62.68.39,61.68,23.35,114.74,68.17,157.75l.61.52c45.69,39.08,100.64,58.89,163.29,58.91h.07c62.6-.02,117.57-19.83,163.33-58.89l.61-.54c44.83-43.01,67.77-96.08,68.16-157.51.31-12.9.31-53.48,0-62.5M2267.64,578.89c-34.76-.02-64.5-11.75-90.75-35.68-25.15-24.1-37-51.53-37.27-86.78-.56-14.45-.56-46.44.02-61.49.36-34.39,12.25-61.44,37.46-85.22,25.39-24.37,55-36.22,90.54-36.22,35.53,0,65.15,11.86,90.63,36.33,25.16,23.67,37.04,50.72,37.42,85.44.48,14.08.69,45.92,0,61.56-.31,34.85-12.19,62.31-37.08,86.17-26.43,24.14-56.2,35.88-90.97,35.89M860.81,190.53c-53.74.1-102.51,45.16-102.51,93.5v386.19c53.74-.12,102.51-45.17,102.51-93.5V190.53Z"/>
</svg>