<?xml version="1.0" encoding="UTF-8"?>
<svg id="Laag_1" xmlns="http://www.w3.org/2000/svg" version="1.1" viewBox="0 0 2166.7 342.5">
  <!-- Generator: Adobe Illustrator 29.4.0, SVG Export Plug-In . SVG Version: 2.1.0 Build 152)  -->
  <defs>
    <style>
      .st0 {
        fill: none;
      }
    </style>
  </defs>
  <path class="st0" d="M-166.7-163.6h2500V503.1H-166.7V-163.6Z"/>
  <path d="M0,245.8v-23.7h83.2v30.2c-.2,15.3,12,28,27.3,28.2,1.3,0,2.5,0,3.8-.2,14,1.9,27-7.2,30.1-21,2.2-7.6,2-15.7-.5-23.2C127.8,195.6,17.7,177.3,3.7,114.2c-2.8-13.9-3-28.1-.5-42.1C11.8,21.4,56.4,3.1,111.6,3.1s104.7,10.2,104.7,78.2v22.1h-77.3v-19.4c.9-14.6-10.3-27.2-24.9-28.1-1.4,0-2.7,0-4.1,0-13.5-1.5-25.9,7.7-28.4,21-.9,5.4-.7,10.9.5,16.2,9.1,36.1,126.7,55.6,139.6,120.8,3.2,16.9,3.4,34.3.5,51.2-7.5,51.8-53.7,71.2-109.5,71.2S0,315.4,0,245.8ZM1008.2,244.7v-23.7h82.1v29.7c-.5,15.1,11.3,27.7,26.4,28.2,1.4,0,2.7,0,4.1-.2,13.8,2.1,26.9-6.9,30.1-20.5,2.2-7.4,2-15.4-.5-22.7-15.6-39.9-124.6-58.3-138.5-121.4-2.9-13.7-3-27.8-.5-41.5,8.6-50.1,53.2-68.5,107.4-68.5s103.6,10.8,103.6,77.7v21.6h-76.7v-18.9c.9-14.6-10.1-27.1-24.7-28.1-1.3,0-2.5,0-3.8,0-13.3-1.8-25.6,7.3-27.9,20.5-.9,5.4-.7,10.9.5,16.2,8.6,36.1,125,55,138,119.7,3.2,16.7,3.4,33.9.5,50.7-7.5,51.8-53.1,70.7-108.3,70.7-58.1,0-111.8-21.1-111.8-89.5h0ZM1302.4,256.1c-.7-6.8-.9-13.7-.5-20.5V12.2h78.4v230.3c-.1,4,0,7.9.5,11.9,4.4,16.3,21.2,26,37.5,21.6,10.5-2.8,18.7-11.1,21.6-21.6.5-3.9.6-7.9.5-11.9V12.2h78.4v223.3c0,5.9-.5,17.3-.5,20.5-5.4,58.3-51,77.1-107.9,77.1s-102.6-18.9-108-77.1h0ZM1947.6,252.8c-.8-6.8-1.2-13.7-1.1-20.6V101.2c0-5.4.5-15.1,1.1-20.5,7-58.2,53.7-76.6,109-76.6s103.1,18.3,108.5,76.6c.6,6.8.8,13.7.5,20.5v10.1h-78.4v-17.2c0-4-.3-8-1.1-11.9-5.3-17.1-23.5-26.5-40.5-21.2-10.1,3.2-18,11.1-21.2,21.2-.9,4.8-1.3,9.7-1.1,14.6v142.4c0,4,0,7.9.5,11.9,3.8,14.6,17.7,24.2,32.7,22.7,14.8,1.6,28.4-8.2,31.7-22.6.7-3.9.9-7.9.5-11.9v-45.4h-31.7v-45.3h109.5v83.5c0,6.8-.3,13.7-1.1,20.5-5.4,56.6-54.2,76.6-109,76.6s-103.6-19.9-109-76.5h0ZM855.2,323.4l-2.1-288-53.7,288h-78.4l-53.2-288-2.1,288h-77.4l6.4-310.7h126.2l39.2,242.7,39.2-242.7h126.1l7,310.7h-77.3ZM442.9,323.4l-41.9-288-43,288h-83.7L331.3,12.8h138l56.9,310.7h-83.2ZM1754.9,320.2l-77.8-258.4,4.3,258.3h-76.3V12.8h114.9l72.9,250.3-4.2-250.3h76.8v307.5h-110.6Z"/>
</svg>