<?xml version="1.0" encoding="UTF-8" standalone="no"?>
<!DOCTYPE svg PUBLIC "-//W3C//DTD SVG 1.1//EN" "http://www.w3.org/Graphics/SVG/1.1/DTD/svg11.dtd">
<svg width="100%" height="100%" viewBox="0 0 243 54" version="1.1" xmlns="http://www.w3.org/2000/svg" xmlns:xlink="http://www.w3.org/1999/xlink" xml:space="preserve" xmlns:serif="http://www.serif.com/" style="fill-rule:evenodd;clip-rule:evenodd;stroke-linejoin:round;stroke-miterlimit:2;">
    <path d="M12.61,22.59C11.352,21.699 9.83,21.255 8.29,21.33C7.03,21.33 5.79,21.73 5.79,22.7C5.79,24 7,24.15 8.84,24.33C12.5,24.72 16.32,26.2 16.32,30.44C16.32,34.68 12.37,36.44 8.24,36.44C4.92,36.44 2.55,35.89 0,33.2L2.87,29.91C4.311,31.311 6.262,32.066 8.27,32C9.98,32 11.17,31.4 11.17,30.37C11.17,29.34 10.12,28.87 8.09,28.69C4.09,28.32 0.59,27.29 0.59,22.69C0.59,18.79 4.41,17.11 8.3,17.11C10.787,16.996 13.234,17.773 15.2,19.3L12.61,22.59Z" style="fill-rule:nonzero;"/>
    <path d="M22.51,21.78L17.14,21.78L17.14,17.49L33.09,17.49L33.09,21.78L27.7,21.78L27.7,35.91L22.51,35.91L22.51,21.78Z" style="fill-rule:nonzero;"/>
    <path d="M42.28,22.65L39.91,28.52L44.62,28.52L42.28,22.65ZM46.39,32.89L38.15,32.89L36.94,35.89L31.41,35.89L39.68,17.46L44.94,17.46L53.18,35.89L47.6,35.89L46.39,32.89Z" style="fill-rule:nonzero;"/>
    <path d="M59.81,31.52L62.55,31.52C65.87,31.52 67.02,29.05 67.02,26.52C67.02,23.99 65.73,21.83 62.55,21.83L59.81,21.83L59.81,31.52ZM62.55,17.52C69.05,17.52 72.18,21.52 72.18,26.6C72.18,31.68 69.18,35.95 62.55,35.95L54.65,35.95L54.65,17.49L62.55,17.49L62.55,17.52Z" style="fill-rule:nonzero;"/>
    <path d="M86.3,22.59C85.047,21.703 83.533,21.259 82,21.33C80.74,21.33 79.5,21.73 79.5,22.7C79.5,23.96 80.74,24.15 82.55,24.33C86.19,24.73 90,26.2 90,30.44C90,34.68 86.05,36.44 81.92,36.44C78.6,36.44 76.23,35.89 73.68,33.2L76.55,29.91C78.002,31.324 79.974,32.081 82,32C83.71,32 84.9,31.4 84.9,30.37C84.9,29.34 83.85,28.87 81.82,28.69C77.82,28.32 74.32,27.29 74.32,22.69C74.32,18.79 78.14,17.11 82.03,17.11C84.517,16.995 86.964,17.772 88.93,19.3L86.3,22.59Z" style="fill-rule:nonzero;"/>
    <path d="M211.37,35.91L218.34,21.75L210.26,21.75L210.26,17.46L224.79,17.46L224.93,19.8L217,35.91L211.37,35.91Z" style="fill:rgb(143,143,145);fill-rule:nonzero;"/>
    <path d="M226.64,23.3C226.64,19.01 230.27,17.22 234.38,17.22C238.49,17.22 242,19.12 242,23C242,27.58 238.71,29.11 234.29,29.11C233.03,29.11 231.29,29.32 231.29,31.45L241.87,31.45L241.87,35.87L226.32,35.87L226.32,31.62C226.32,26.14 230.51,25.04 234.32,25.04C235.32,25.04 236.9,24.62 236.9,23.12C236.9,21.83 235.66,21.36 234.4,21.36C232.87,21.36 231.87,21.91 231.74,23.31L226.66,23.31L226.64,23.3Z" style="fill:rgb(143,143,145);fill-rule:nonzero;"/>
    <path d="M208.73,26.84C208.73,35.453 201.643,42.54 193.03,42.54C184.417,42.54 177.33,35.453 177.33,26.84C177.33,18.239 184.399,11.156 193,11.14L193.01,11.14C201.623,11.14 208.71,18.227 208.71,26.84L208.73,26.84ZM202.92,26.84L202.89,26.84C202.89,21.415 198.425,16.95 193,16.95C187.586,16.966 183.14,21.426 183.14,26.84C183.14,32.265 187.605,36.73 193.03,36.73C198.455,36.73 202.92,32.265 202.92,26.84Z" style="fill:rgb(143,143,145);"/>
    <path d="M111.83,35.89L107.59,35.89L104.33,27.07L101.17,35.89L97,35.89L90.13,17.49L95.82,17.49L98.14,24C98.557,25.399 98.891,26.822 99.14,28.26L102.54,17.52L106.15,17.52L109.65,28.26C109.91,26.86 110.26,25.39 110.65,23.86L112.86,17.52L118.55,17.52L111.83,35.89Z" style="fill:rgb(214,36,31);fill-rule:nonzero;"/>
    <path d="M135,35.91L120.26,35.91L120.26,17.49L134.63,17.49L134.63,21.86L125.39,21.86L125.39,24.49L134.1,24.49L134.1,28.73L125.39,28.73L125.39,31.52L135,31.52L135,35.91Z" style="fill:rgb(214,36,31);fill-rule:nonzero;"/>
    <path d="M143.16,21.65L143.16,26.07L147,26.07C147.027,26.071 147.054,26.072 147.081,26.072C148.139,26.072 149.011,25.2 149.011,24.142C149.011,24.074 149.007,24.007 149,23.94C149.007,23.87 149.011,23.799 149.011,23.729C149.011,22.614 148.114,21.687 147,21.65L143.16,21.65ZM155,35.91L149.26,35.91L144.97,29.91L143.15,29.91L143.15,35.91L137.94,35.91L137.94,17.49L146.94,17.49C151.65,17.49 154.1,20.49 154.1,23.83C154.1,26.09 153.31,28.02 150.2,29.38L155,35.6L155,35.92L155,35.91Z" style="fill:rgb(214,36,31);fill-rule:nonzero;"/>
    <path d="M173.65,17.8L166.17,26.51C168.75,29.35 171.72,32.67 174.28,35.59L174.28,35.91L167.83,35.91L162.57,29.78L162.57,35.91L157.36,35.91L157.36,17.49L162.57,17.49L162.57,23.54C164.15,21.59 165.86,19.43 167.41,17.49L173.65,17.49L173.65,17.8Z" style="fill:rgb(214,36,31);fill-rule:nonzero;"/>
    <rect x="188.88" y="22.7" width="8.28" height="8.28" style="fill:rgb(214,36,31);"/>
    <rect x="188.88" y="45.51" width="8.28" height="8.28" style="fill:rgb(214,36,31);"/>
    <rect x="188.88" y="0" width="8.28" height="8.28" style="fill:rgb(214,36,31);"/>
</svg>
